<?xml version="1.0" encoding="UTF-8" standalone="no"?>
<!DOCTYPE svg PUBLIC "-//W3C//DTD SVG 1.1//EN" "http://www.w3.org/Graphics/SVG/1.1/DTD/svg11.dtd">
<svg width="316px" height="316px" version="1.1" xmlns="http://www.w3.org/2000/svg" xmlns:xlink="http://www.w3.org/1999/xlink" xml:space="preserve" xmlns:serif="http://www.serif.com/" style="fill-rule:evenodd;clip-rule:evenodd;stroke-linejoin:round;stroke-miterlimit:2;">
    <g transform="matrix(1.33333,0,0,1.33333,0,0)">
        <path d="M118.053,9.976C71.111,9.976 29.824,39.972 15.311,84.622C0.798,129.272 16.574,177.805 54.557,205.397C92.287,232.925 143.819,232.925 181.549,205.397C219.532,177.805 235.307,129.272 220.795,84.622C206.291,39.972 165.003,9.976 118.053,9.976M118.053,236.076C93.745,236.076 69.44,228.538 48.695,213.463C7.207,183.327 -10.018,130.31 5.828,81.539C21.674,32.768 66.778,0.001 118.053,0.001C169.336,0.001 214.436,32.772 230.278,81.543C246.128,130.31 228.903,183.326 187.411,213.468C166.669,228.539 142.357,236.076 118.053,236.076M167.633,158.764L68.478,158.764C66.386,158.762 64.665,157.043 64.661,154.951L64.661,87.835L103.694,126.506C108.177,129.848 112.336,132.073 118.057,132.073C123.79,132.073 127.949,129.835 132.432,126.473L171.449,87.827L171.449,154.952C171.445,157.044 169.724,158.763 167.632,158.765M167.632,78.677C168.27,78.677 168.845,78.873 169.37,79.152L127.653,120.523C123.711,123.448 121.265,124.444 118.057,124.444C114.849,124.444 112.407,123.452 108.465,120.548L66.741,79.152C67.266,78.873 67.841,78.677 68.479,78.677L167.633,78.677L167.632,78.677ZM167.632,71.048L68.478,71.048C62.205,71.058 57.046,76.217 57.036,82.49L57.036,154.953C57.036,161.266 62.165,166.395 68.478,166.395L167.632,166.395C173.94,166.395 179.074,161.266 179.074,154.953L179.074,82.489C179.064,76.216 173.905,71.057 167.632,71.047" style="fill:white;fill-rule:nonzero;"/>
    </g>
</svg>
