<?xml version="1.0" encoding="UTF-8" standalone="no"?>
<!DOCTYPE svg PUBLIC "-//W3C//DTD SVG 1.1//EN" "http://www.w3.org/Graphics/SVG/1.1/DTD/svg11.dtd">
<svg width="316px" height="316px" version="1.1" xmlns="http://www.w3.org/2000/svg" xmlns:xlink="http://www.w3.org/1999/xlink" xml:space="preserve" xmlns:serif="http://www.serif.com/" style="fill-rule:evenodd;clip-rule:evenodd;stroke-linejoin:round;stroke-miterlimit:2;">
    <g transform="matrix(1.33333,0,0,1.33333,0,0)">
        <path d="M118.044,9.976C71.094,9.976 29.806,39.972 15.306,84.618C0.785,129.008 16.709,178.016 54.548,205.393C92.527,232.997 143.565,232.997 181.54,205.393C219.378,178.015 235.303,129.009 220.786,84.618C206.436,40.174 164.748,9.887 118.044,9.976M118.044,236.076C93.731,236.076 69.431,228.538 48.686,213.463C7.198,183.327 -10.027,130.31 5.823,81.539C21.664,32.772 66.76,0.001 118.044,0.001C169.328,0.001 214.419,32.772 230.273,81.539C246.125,130.028 228.73,183.556 187.402,213.464C166.664,228.535 142.348,236.077 118.044,236.077M167.031,101.793L152.368,92.993L152.368,91.339C152.358,85.066 147.199,79.907 140.926,79.897L95.164,79.897C88.851,79.897 83.722,85.03 83.722,91.339L83.722,92.993L69.059,101.793L64.734,97.468C64.984,94.522 65.963,87.951 69.842,84.193C74.8,79.401 91.73,72.272 118.042,72.272C144.363,72.272 161.288,79.401 166.246,84.193C170.129,87.956 171.109,94.526 171.354,97.468L167.029,101.793L167.031,101.793ZM171.548,78.714C164.54,71.939 144.81,64.643 118.044,64.643C91.278,64.643 71.552,71.939 64.544,78.714C57.115,85.906 57.027,98.435 57.027,98.964C57.027,99.977 57.427,100.947 58.144,101.664L65.773,109.293C67.006,110.531 68.927,110.76 70.431,109.864L89.502,98.422C90.648,97.734 91.352,96.493 91.352,95.151L91.352,91.338C91.352,89.234 93.06,87.525 95.165,87.525L140.928,87.525C143.032,87.525 144.741,89.233 144.741,91.338L144.741,95.151C144.741,96.49 145.446,97.735 146.595,98.422L165.662,109.864C166.257,110.219 166.936,110.407 167.629,110.406C168.638,110.406 169.607,110.006 170.321,109.293L177.95,101.664C178.667,100.949 179.07,99.977 179.071,98.964C179.071,98.435 178.979,85.906 171.55,78.714" style="fill:white;fill-rule:nonzero;"/>
        <path d="M118.044,148.547C111.736,148.547 106.606,143.418 106.606,137.105C106.606,130.792 111.735,125.663 118.044,125.663C124.317,125.673 129.476,130.832 129.486,137.105C129.486,143.414 124.357,148.547 118.044,148.547M118.044,118.039C107.536,118.039 98.977,126.589 98.977,137.106C98.977,147.623 107.535,156.173 118.044,156.173C128.553,156.173 137.115,147.619 137.115,137.106C137.115,126.593 128.557,118.039 118.044,118.039M163.81,159.989C163.806,162.079 162.087,163.798 159.997,163.802L76.097,163.802C74.005,163.8 72.284,162.081 72.28,159.989L72.28,155.693C72.273,148.977 73.637,142.33 76.288,136.16L82.863,120.822L103.692,110.409L132.4,110.409L153.229,120.822L159.804,136.16C162.462,142.368 163.808,148.939 163.808,155.693L163.808,159.989L163.81,159.989ZM159.689,116.531C159.335,115.706 158.697,115.031 157.889,114.623L137.118,104.24L137.118,95.152C137.114,93.06 135.393,91.341 133.301,91.339C131.193,91.339 129.488,93.052 129.488,95.152L129.488,102.785L106.605,102.785L106.605,95.152C106.601,93.06 104.88,91.341 102.788,91.339C100.698,91.343 98.979,93.062 98.975,95.152L98.975,104.24L78.204,114.623C77.396,115.031 76.758,115.706 76.404,116.531L69.279,133.16C66.219,140.278 64.646,147.946 64.654,155.693L64.654,159.989C64.654,166.297 69.787,171.427 76.096,171.427L159.996,171.427C166.309,171.427 171.438,166.298 171.438,159.989L171.438,155.693C171.446,147.946 169.873,140.278 166.813,133.16L159.688,116.531L159.689,116.531Z" style="fill:white;fill-rule:nonzero;"/>
    </g>
</svg>
