<?xml version="1.0" encoding="UTF-8" standalone="no"?>
<!DOCTYPE svg PUBLIC "-//W3C//DTD SVG 1.1//EN" "http://www.w3.org/Graphics/SVG/1.1/DTD/svg11.dtd">
<svg width="316px" height="316px" version="1.1" xmlns="http://www.w3.org/2000/svg" xmlns:xlink="http://www.w3.org/1999/xlink" xml:space="preserve" xmlns:serif="http://www.serif.com/" style="fill-rule:evenodd;clip-rule:evenodd;stroke-linejoin:round;stroke-miterlimit:2;">
    <g transform="matrix(1.33333,0,0,1.33333,0,0)">
        <path d="M118.048,9.976C71.094,9.976 29.81,39.972 15.31,84.618C0.793,129.268 16.568,177.806 54.548,205.393C92.531,232.997 143.565,232.997 181.544,205.393C219.523,177.805 235.298,129.268 220.786,84.618C206.274,39.968 164.99,9.976 118.048,9.976M118.048,236.076C93.735,236.076 69.431,228.538 48.69,213.463C7.358,183.558 -10.036,130.027 5.823,81.539C21.665,32.772 66.761,0.001 118.048,0.001C169.323,0.001 214.423,32.772 230.273,81.539C246.126,130.027 228.733,183.555 187.406,213.464C166.664,228.535 142.352,236.077 118.048,236.077M156.727,118.839L156.706,99.406C156.693,97.806 156.602,96.173 156.256,94.623C154.189,85.331 146.493,79.069 136.981,79.019C123.656,78.956 110.327,78.994 97.002,79.023C95.635,79.027 94.239,79.169 92.91,79.465C83.622,81.553 77.356,89.24 77.306,98.748L77.31,138.723C77.314,140.094 77.456,141.49 77.756,142.823C79.852,152.161 87.564,158.386 97.173,158.423L136.873,158.419C138.29,158.415 139.736,158.281 141.111,157.973C150.394,155.894 156.628,148.202 156.715,138.694L156.728,118.84M116.928,167.265C110.495,167.265 104.061,167.273 97.628,167.261C84.786,167.236 74.165,159.844 70.032,147.707C69.032,144.765 68.574,141.507 68.532,138.386L68.474,99.103C68.516,85.295 77.574,73.924 91.02,70.861C93.149,70.378 95.391,70.215 97.583,70.207L136.458,70.182C150.387,70.203 161.737,79.17 164.858,92.699C165.346,94.824 165.512,97.066 165.525,99.262L165.55,138.137C165.529,152.083 156.629,163.387 143.067,166.554C140.896,167.062 138.604,167.204 136.367,167.233L116.929,167.266M134.657,118.777C134.69,109.035 126.882,101.144 117.136,101.069C117.084,101.069 117.033,101.068 116.981,101.068C107.325,101.068 99.376,109.005 99.361,118.661C99.328,128.403 107.14,136.294 116.878,136.369C116.931,136.369 116.984,136.37 117.037,136.37C126.693,136.37 134.642,128.433 134.657,118.777M143.482,118.66C143.532,133.189 131.586,145.173 117.036,145.193C102.486,145.213 90.523,133.251 90.536,118.705C90.544,104.209 102.399,92.317 116.915,92.242C131.44,92.167 143.432,104.1 143.482,118.659M143.14,88.662C145.306,88.71 147.061,90.505 147.061,92.671C147.061,92.711 147.06,92.751 147.059,92.791C146.975,94.947 145.165,96.669 143.007,96.645C140.791,96.608 139.009,94.732 139.084,92.516C139.168,90.358 140.981,88.635 143.141,88.662" style="fill:white;fill-rule:nonzero;"/>
    </g>
</svg>
