<?xml version="1.0" encoding="UTF-8" standalone="no"?>
<!DOCTYPE svg PUBLIC "-//W3C//DTD SVG 1.1//EN" "http://www.w3.org/Graphics/SVG/1.1/DTD/svg11.dtd">
<svg width="316px" height="316px" version="1.1" xmlns="http://www.w3.org/2000/svg" xmlns:xlink="http://www.w3.org/1999/xlink" xml:space="preserve" xmlns:serif="http://www.serif.com/" style="fill-rule:evenodd;clip-rule:evenodd;stroke-linejoin:round;stroke-miterlimit:2;">
    <g transform="matrix(1.33333,0,0,1.33333,0,0)">
        <path d="M118.053,9.976C71.103,9.976 29.815,39.972 15.315,84.618C0.802,129.268 16.573,177.806 54.553,205.393C92.536,232.997 143.574,232.997 181.549,205.393C219.387,178.015 235.312,129.009 220.795,84.618C206.287,39.968 164.995,9.976 118.053,9.976M118.053,236.076C93.74,236.076 69.44,228.538 48.695,213.463C7.363,183.558 -10.031,130.027 5.828,81.539C21.67,32.772 66.77,0.001 118.053,0.001C169.328,0.001 214.428,32.772 230.278,81.539C246.128,130.306 228.899,183.327 187.411,213.464C166.669,228.535 142.357,236.077 118.053,236.077M88.311,116.122L118.053,167.614L147.961,115.793C150.849,110.655 152.374,104.843 152.374,98.972C152.374,80.043 136.982,64.643 118.061,64.643C99.132,64.643 83.728,80.043 83.728,98.972C83.734,104.863 85.255,110.655 88.145,115.789C88.207,115.897 88.263,116.008 88.312,116.122M118.054,179.055C116.691,179.055 115.429,178.326 114.75,177.147L81.496,119.568C81.418,119.43 81.346,119.288 81.283,119.143C77.891,112.964 76.1,106.001 76.1,98.972C76.1,75.834 94.925,57.014 118.063,57.014C141.188,57.014 160.005,75.835 160.005,98.972C160.005,106.01 158.209,112.989 154.809,119.168C154.751,119.31 154.684,119.439 154.613,119.568L121.355,177.147C120.676,178.326 119.415,179.055 118.055,179.055" style="fill:white;fill-rule:nonzero;"/>
        <path d="M118.057,91.339C113.873,91.343 110.43,94.784 110.424,98.968C110.432,103.151 113.874,106.589 118.057,106.593C122.261,106.593 125.682,103.176 125.682,98.968C125.682,94.76 122.261,91.339 118.057,91.339M118.057,114.222C109.64,114.222 102.799,107.38 102.799,98.968C102.811,90.602 109.691,83.722 118.057,83.71C126.42,83.726 133.295,90.605 133.307,98.968C133.307,107.381 126.465,114.222 118.057,114.222" style="fill:white;fill-rule:nonzero;"/>
    </g>
</svg>
