<?xml version="1.0" encoding="UTF-8" standalone="no"?>
<!DOCTYPE svg PUBLIC "-//W3C//DTD SVG 1.1//EN" "http://www.w3.org/Graphics/SVG/1.1/DTD/svg11.dtd">
<svg width="316px" height="316px" version="1.1" xmlns="http://www.w3.org/2000/svg" xmlns:xlink="http://www.w3.org/1999/xlink" xml:space="preserve" xmlns:serif="http://www.serif.com/" style="fill-rule:evenodd;clip-rule:evenodd;stroke-linejoin:round;stroke-miterlimit:2;">
    <g transform="matrix(1.33333,0,0,1.33333,0,0)">
        <path d="M118.053,9.976C71.107,9.976 29.82,39.972 15.315,84.622C0.798,129.012 16.721,178.018 54.557,205.397C92.287,232.925 143.819,232.925 181.549,205.397C219.532,177.805 235.307,129.272 220.791,84.622C206.291,39.972 165.008,9.976 118.053,9.976M118.053,236.076C93.745,236.076 69.44,228.538 48.695,213.463C7.207,183.327 -10.018,130.31 5.828,81.539C21.674,32.768 66.778,0.001 118.053,0.001C169.336,0.001 214.436,32.772 230.278,81.543C246.128,130.31 228.903,183.326 187.411,213.468C166.669,228.539 142.357,236.076 118.053,236.076M83.078,64.231C89.607,64.231 94.916,69.544 94.916,76.06C94.916,82.598 89.608,87.91 83.078,87.91C76.579,87.908 71.232,82.559 71.232,76.06C71.232,69.543 76.528,64.231 83.078,64.231M72.853,96.872L93.295,96.872L93.295,162.539L72.853,162.539L72.853,96.872ZM106.103,96.872L125.678,96.872L125.678,105.847L125.949,105.847C128.678,100.689 135.341,95.243 145.274,95.243C165.941,95.243 169.753,108.831 169.753,126.518L169.753,162.539L149.357,162.539L149.357,130.618C149.357,122.997 149.207,113.201 138.749,113.201C128.12,113.201 126.503,121.489 126.503,130.051L126.503,162.539L106.103,162.539L106.103,96.872Z" style="fill:white;fill-rule:nonzero;"/>
    </g>
</svg>
